<svg width="120" height="81" viewBox="0 0 120 81" fill="none" xmlns="http://www.w3.org/2000/svg">
<path d="M3.88594 7.72644C25.437 0.0555504 46.399 11.7513 53.7941 68.2109H54.7297L78.4328 1H88.5691L59.252 80.8422H49.2717C39.7074 12.089 23.0986 3.84567 0.660011 13.6292C-1.60501 11.021 2.58184 9.57965 3.88594 7.72644Z" fill="white"/>
<path d="M101.959 77.4638C100.815 78.0388 60.3057 77.9352 60.3057 77.9352L85.8528 3.88296H98.0273C98.0273 3.88296 115.799 2.62641 116.943 3.77631C118.088 4.9262 101.497 48.6166 101.497 48.6166L76.2752 37.9222L75.1802 39.4186L74.036 41.1433C74.036 41.1433 107.218 54.3652 107.79 55.5151C108.362 56.6649 103.104 76.8888 101.959 77.4638Z" stroke="#A4D86C" stroke-width="5.71786"/>
<path d="M15.3432 35.5756L2.55665 35.8095C2.55665 35.8095 6.49434 42.0656 15.3432 41.8393C24.192 41.6129 27.8358 35.347 27.8358 35.347L15.3432 35.5756Z" fill="#A4D86C"/>
<path d="M14.8881 10.7006L2.55665 35.8095M14.8881 10.7006L15.3432 35.5756M14.8881 10.7006L27.8358 35.347M2.55665 35.8095L15.3432 35.5756M2.55665 35.8095C2.55665 35.8095 6.49434 42.0656 15.3432 41.8393C24.192 41.6129 27.8358 35.347 27.8358 35.347M15.3432 35.5756L27.8358 35.347" stroke="white" stroke-width="0.274549"/>
<path d="M89.2699 66.4114L90.5054 63.3228V62.9109L90.7799 63.3228L91.2604 63.1169V63.3228L90.7799 64.9014L90.2308 65.5192L90.0936 65.9721L90.2308 66.2055L90.7799 65.7251L90.9172 65.1073C90.9172 65.1073 91.4663 61.8127 94.2118 60.7146C97.0946 59.5615 101.213 61.0577 101.213 61.0577L102.311 61.4009C102.311 61.4009 101.838 61.6303 101.556 61.8127C99.2223 63.3228 99.085 65.1073 96.9573 66.6173C93.8028 68.856 90.7799 65.7251 90.7799 65.7251L90.2308 66.2055L90.0936 65.9721L90.2308 65.5192L90.7799 64.9014L91.2604 63.3228V63.1169L90.7799 63.3228L90.5054 62.9109V63.3228L89.2699 66.4114L88.7368 67.9442C88.7306 68.237 88.7208 68.4019 88.7208 68.4019C88.7208 68.4019 81.7198 69.7747 78.288 65.9721C74.8402 62.1519 76.5721 56.7336 73.8952 53.5488C73.4357 53.0021 72.5225 52.3408 72.5225 52.3408C72.5225 52.3408 73.4433 52.4543 74.0325 52.4781C79.2161 52.6876 82.063 52.1349 86.2499 57.5572C88.6991 60.7292 88.7716 66.3153 88.7368 67.9442L89.2699 66.4114Z" fill="#A4D86C"/>
<path d="M88.7208 68.4019V67.9901L89.2699 66.4114L90.5054 63.3228V62.9109L90.7799 63.3228L91.2604 63.1169V63.3228L90.7799 64.9014L90.2308 65.5192L90.0936 65.9721L90.2308 66.2055L90.7799 65.7251M88.7208 68.4019C88.7208 68.4019 89.1395 61.2995 86.2499 57.5572C82.063 52.1349 79.2161 52.6876 74.0325 52.4781C73.4433 52.4543 72.5225 52.3408 72.5225 52.3408M88.7208 68.4019C88.7208 68.4019 81.7198 69.7747 78.288 65.9721C74.8402 62.1519 76.5721 56.7336 73.8952 53.5488C73.4357 53.0021 72.5225 52.3408 72.5225 52.3408M88.7208 68.4019C88.7208 68.4019 88.5736 69.0353 88.4463 69.4315C88.2513 70.038 87.951 70.3162 87.8285 70.9415C87.746 71.3632 87.7599 72.0397 87.7599 72.0397L88.8581 72.3142C88.8581 72.3142 89.3404 70.993 89.5445 70.1178C89.7356 69.2982 89.6769 68.8049 89.8877 67.9901C90.0002 67.5551 90.2308 66.8919 90.2308 66.8919L90.9172 65.9721M72.5225 52.3408C72.5225 52.3408 76.5852 54.8207 78.9744 57.6987M90.7799 65.7251L90.9172 65.1073C90.9172 65.1073 91.4663 61.8127 94.2118 60.7146C97.0946 59.5614 101.213 61.0577 101.213 61.0577L102.311 61.4009C102.311 61.4009 101.838 61.6303 101.556 61.8127C99.2223 63.3228 99.085 65.1073 96.9573 66.6174C93.8028 68.856 90.7799 65.7251 90.7799 65.7251ZM88.1031 68.1274C88.1031 68.1274 87.6941 67.7986 87.0735 67.2699M91.2604 65.2446C91.2604 65.2446 91.6031 64.8101 92.0924 64.2837M100.115 61.2637C100.115 61.2637 99.2358 61.2637 98.0555 61.4244M92.0924 64.2837C92.5806 63.7583 93.2148 63.1415 93.8 62.7737C93.9329 62.6901 94.0705 62.6111 94.2118 62.5366M92.0924 64.2837C92.0924 64.2837 93.3234 64.0966 94.0745 64.2837C94.8426 64.475 95.8591 65.2446 95.8591 65.2446M94.2118 62.5366C94.2118 62.5366 95.7577 62.4837 96.6827 62.7737C97.4607 63.0175 98.5359 63.7346 98.5359 63.7346M94.2118 62.5366C95.4135 61.9023 96.8832 61.5841 98.0555 61.4244M98.0555 61.4244C98.0555 61.4244 99.0446 61.4702 99.6341 61.6755C99.94 61.782 100.389 62.0187 100.389 62.0187M87.0735 67.2699C87.0735 67.2699 87.5616 66.2262 87.7599 65.5192C87.9944 64.6833 88.1031 63.3228 88.1031 63.3228M87.0735 67.2699C86.4949 66.7769 85.7324 66.1101 84.9458 65.3739M87.0735 67.2699C87.0735 67.2699 85.1577 66.8633 83.9162 66.8919C83.3243 66.9055 82.4062 67.0292 82.4062 67.0292M84.9458 65.3739C84.9458 65.3739 85.6507 63.4422 85.9067 62.1559C86.154 60.9134 86.2499 58.93 86.2499 58.93M84.9458 65.3739C84.2144 64.6894 83.4623 63.9449 82.818 63.2243M84.9458 65.3739C84.9458 65.3739 83.422 64.8436 82.4062 64.6955C81.1435 64.5114 79.1385 64.6955 79.1385 64.6955M82.818 63.2243C82.818 63.2243 83.4744 61.8989 83.7103 60.9891C84.1813 59.1729 83.7103 56.1845 83.7103 56.1845M82.818 63.2243C82.7859 63.1885 82.7541 63.1526 82.7226 63.1169M80.8276 60.5257C81.312 61.3186 81.7844 62.0253 82.5435 62.9109C82.6021 62.9793 82.6618 63.0479 82.7226 63.1169M80.8276 60.5257C80.8276 60.5257 81.3762 58.9479 81.3767 57.9004C81.3773 56.4165 80.2785 54.2627 80.2785 54.2627M80.8276 60.5257C80.7963 60.4747 80.7651 60.4232 80.7337 60.3714M78.9744 57.6987C78.9744 57.6987 79.071 56.7679 78.9744 56.1845C78.8311 55.3199 78.0821 54.1254 78.0821 54.1254M78.9744 57.6987C79.03 57.7657 79.0848 57.833 79.1385 57.9004M79.1385 57.9004C79.4092 58.2399 79.655 58.5842 79.8666 58.93C80.1966 59.4689 80.4697 59.9353 80.7337 60.3714M79.1385 57.9004C79.1385 57.9004 77.9677 57.1198 77.1898 56.665C76.7133 56.3864 75.9543 55.9786 75.9543 55.9786M80.7337 60.3714C80.7337 60.3714 78.9031 58.9754 77.533 58.5182C77.0088 58.3432 76.1602 58.175 76.1602 58.175M82.7226 63.1169C82.7226 63.1169 81.1331 62.1467 80.0039 61.8127C78.9401 61.4981 77.1898 61.4244 77.1898 61.4244" stroke="#5F7D3E" stroke-width="0.274549"/>
<path d="M89.2707 66.4116L90.5061 63.323V62.9111L90.7807 63.323L91.2612 63.117V63.323L90.7807 64.9016L90.2316 65.5193L90.0943 65.9723L90.2316 66.2057L90.7807 65.7253L90.918 65.9723L90.2316 66.8921C90.2316 66.8921 90.0009 67.5553 89.8884 67.9903C89.6776 68.8051 89.7363 69.2983 89.5452 70.118C89.3412 70.9932 88.8589 72.3144 88.8589 72.3144L87.7607 72.0399C87.7607 72.0399 87.7467 71.3634 87.8293 70.9417C87.9518 70.3164 88.252 70.0382 88.447 69.4317C88.5744 69.0355 88.7216 68.4021 88.7216 68.4021V67.9903L89.2707 66.4116Z" fill="#536D37" stroke="#5F7D3E" stroke-width="0.274549"/>
</svg>
